<?xml version="1.0" encoding="UTF-8" standalone="no"?>
<!DOCTYPE svg PUBLIC "-//W3C//DTD SVG 1.1//EN"
 "http://www.w3.org/Graphics/SVG/1.1/DTD/svg11.dtd">
<!-- Generated by graphviz version 2.38.0 (20140413.2041)
 -->
<!-- Title: G Pages: 1 -->
<svg width="102pt" height="188pt"
 viewBox="0.00 0.00 101.57 188.00" xmlns="http://www.w3.org/2000/svg" xmlns:xlink="http://www.w3.org/1999/xlink">
<g id="graph0" class="graph" transform="scale(1 1) rotate(0) translate(4 184)">
<title>G</title>
<polygon fill="white" stroke="none" points="-4,4 -4,-184 97.5692,-184 97.5692,4 -4,4"/>
<!-- start -->
<g id="node1" class="node"><title>start</title>
<ellipse fill="none" stroke="black" cx="46.7846" cy="-162" rx="27.1719" ry="18"/>
<text text-anchor="middle" x="46.7846" y="-158.9" font-family="Courier New" font-size="12.00">start</text>
</g>
<!-- eth_parse -->
<g id="node2" class="node"><title>eth_parse</title>
<ellipse fill="none" stroke="black" cx="46.7846" cy="-90" rx="46.5702" ry="18"/>
<text text-anchor="middle" x="46.7846" y="-86.9" font-family="Courier New" font-size="12.00">eth_parse</text>
</g>
<!-- start&#45;&gt;eth_parse -->
<g id="edge1" class="edge"><title>start&#45;&gt;eth_parse</title>
<path fill="none" stroke="black" d="M46.7846,-143.697C46.7846,-135.983 46.7846,-126.712 46.7846,-118.112"/>
<polygon fill="black" stroke="black" points="50.2847,-118.104 46.7846,-108.104 43.2847,-118.104 50.2847,-118.104"/>
</g>
<!-- encap_tbl -->
<g id="node3" class="node"><title>encap_tbl</title>
<polygon fill="none" stroke="black" points="83.7846,-36 9.78461,-36 9.78461,-0 83.7846,-0 83.7846,-36"/>
<text text-anchor="middle" x="46.7846" y="-14.9" font-family="Courier New" font-size="12.00">encap_tbl</text>
</g>
<!-- eth_parse&#45;&gt;encap_tbl -->
<g id="edge2" class="edge"><title>eth_parse&#45;&gt;encap_tbl</title>
<path fill="none" stroke="black" d="M46.7846,-71.6966C46.7846,-63.9827 46.7846,-54.7125 46.7846,-46.1124"/>
<polygon fill="black" stroke="black" points="50.2847,-46.1043 46.7846,-36.1043 43.2847,-46.1044 50.2847,-46.1043"/>
</g>
</g>
</svg>
