<?xml version="1.0" encoding="UTF-8" standalone="no"?>
<!DOCTYPE svg PUBLIC "-//W3C//DTD SVG 1.1//EN"
 "http://www.w3.org/Graphics/SVG/1.1/DTD/svg11.dtd">
<!-- Generated by graphviz version 2.38.0 (20140413.2041)
 -->
<!-- Title: G Pages: 1 -->
<svg width="144pt" height="260pt"
 viewBox="0.00 0.00 143.65 260.00" xmlns="http://www.w3.org/2000/svg" xmlns:xlink="http://www.w3.org/1999/xlink">
<g id="graph0" class="graph" transform="scale(1 1) rotate(0) translate(4 256)">
<title>G</title>
<polygon fill="white" stroke="none" points="-4,4 -4,-256 139.647,-256 139.647,4 -4,4"/>
<!-- start -->
<g id="node1" class="node"><title>start</title>
<ellipse fill="none" stroke="black" cx="88.8625" cy="-234" rx="27.1719" ry="18"/>
<text text-anchor="middle" x="88.8625" y="-230.9" font-family="Courier New" font-size="12.00">start</text>
</g>
<!-- eth_parse -->
<g id="node2" class="node"><title>eth_parse</title>
<ellipse fill="none" stroke="black" cx="88.8625" cy="-162" rx="46.5702" ry="18"/>
<text text-anchor="middle" x="88.8625" y="-158.9" font-family="Courier New" font-size="12.00">eth_parse</text>
</g>
<!-- start&#45;&gt;eth_parse -->
<g id="edge1" class="edge"><title>start&#45;&gt;eth_parse</title>
<path fill="none" stroke="black" d="M88.8625,-215.697C88.8625,-207.983 88.8625,-198.712 88.8625,-190.112"/>
<polygon fill="black" stroke="black" points="92.3626,-190.104 88.8625,-180.104 85.3626,-190.104 92.3626,-190.104"/>
</g>
<!-- xlan_parse -->
<g id="node3" class="node"><title>xlan_parse</title>
<ellipse fill="none" stroke="black" cx="49.8625" cy="-90" rx="49.7255" ry="18"/>
<text text-anchor="middle" x="49.8625" y="-86.9" font-family="Courier New" font-size="12.00">xlan_parse</text>
</g>
<!-- eth_parse&#45;&gt;xlan_parse -->
<g id="edge2" class="edge"><title>eth_parse&#45;&gt;xlan_parse</title>
<path fill="none" stroke="black" d="M79.4217,-144.055C74.8229,-135.801 69.1962,-125.701 64.0907,-116.538"/>
<polygon fill="black" stroke="black" points="67.141,-114.821 59.2164,-107.789 61.026,-118.228 67.141,-114.821"/>
</g>
<!-- encap_tbl -->
<g id="node4" class="node"><title>encap_tbl</title>
<polygon fill="none" stroke="black" points="125.863,-36 51.8625,-36 51.8625,-0 125.863,-0 125.863,-36"/>
<text text-anchor="middle" x="88.8625" y="-14.9" font-family="Courier New" font-size="12.00">encap_tbl</text>
</g>
<!-- eth_parse&#45;&gt;encap_tbl -->
<g id="edge3" class="edge"><title>eth_parse&#45;&gt;encap_tbl</title>
<path fill="none" stroke="black" d="M96.9609,-144.262C101.447,-134.048 106.568,-120.578 108.863,-108 111.734,-92.2597 111.734,-87.7403 108.863,-72 107.257,-63.1957 104.265,-53.9537 101.076,-45.6977"/>
<polygon fill="black" stroke="black" points="104.214,-44.1248 97.1684,-36.2119 97.7415,-46.7912 104.214,-44.1248"/>
</g>
<!-- xlan_parse&#45;&gt;encap_tbl -->
<g id="edge4" class="edge"><title>xlan_parse&#45;&gt;encap_tbl</title>
<path fill="none" stroke="black" d="M59.3034,-72.055C63.7874,-64.0067 69.2486,-54.2046 74.251,-45.2259"/>
<polygon fill="black" stroke="black" points="77.4282,-46.7145 79.2377,-36.2753 71.3132,-43.3075 77.4282,-46.7145"/>
</g>
</g>
</svg>
